<?xml version="1.0" encoding="UTF-8"?>
<svg version="1.1" xmlns="http://www.w3.org/2000/svg" width="2048" height="2048">
<path d="M0 0 C675.84 0 1351.68 0 2048 0 C2048 675.84 2048 1351.68 2048 2048 C1372.16 2048 696.32 2048 0 2048 C0 1372.16 0 696.32 0 0 Z " fill="#FEFEFE" transform="translate(0,0)"/>
<path d="M0 0 C49.83 0 99.66 0 151 0 C155.45551601 10.02491103 155.45551601 10.02491103 157 15.4375 C158.4095669 20.18176215 160.03712645 24.70704172 161.93359375 29.2734375 C163.50103129 33.28102505 164.80563658 37.37187281 166.13989258 41.46118164 C167.6172124 45.95120916 169.29744819 50.30982462 171.1015625 54.67578125 C172.32922831 57.85169933 173.24075539 61.09544347 174.17822266 64.36645508 C174.95843071 66.86678316 175.87021426 69.2387355 176.875 71.65625 C179.33433363 77.72590337 181.34078554 83.91649229 183.35546875 90.14453125 C185.08488975 95.42669946 187.00467926 100.57688264 189.10302734 105.72314453 C190.26227177 108.66574483 191.1823639 111.65083997 192.0625 114.6875 C193.20092373 118.61090881 194.53990905 122.28262191 196.18579102 126.02026367 C198.19200128 130.89833234 199.68354163 135.98285336 201.30664062 140.99804688 C203.05147917 146.32582781 204.9564149 151.53516497 207.10986328 156.7121582 C208.02819306 159.07246219 208.75288133 161.43756149 209.4375 163.875 C210.46170769 167.42703943 211.70299098 170.74031944 213.1875 174.125 C216.27954423 181.32103021 218.64482382 188.74916418 221.05737305 196.19580078 C222.85271911 201.7033218 224.80495407 207.08038369 226.99780273 212.44091797 C229.26282507 218.22458767 231.08150887 224.17276948 233 230.078125 C234.84615333 235.70312342 236.8484832 241.20310315 239.08935547 246.68212891 C240.44300631 250.12758765 241.51398324 253.63948874 242.5625 257.1875 C243.86642838 261.58987207 245.30444809 265.75987373 247.16772461 269.96606445 C249.46316391 275.57571678 251.16575404 281.43453686 253.0390625 287.1953125 C254.81036501 292.59034839 256.74903446 297.78376251 259 303 C260.51673341 307.30565282 261.90110907 311.6551123 263.30664062 315.99804688 C265.06331477 321.36196727 267.00482914 326.59753338 269.13647461 331.82348633 C270.09707474 334.24467664 270.87506857 336.67556503 271.5625 339.1875 C272.50593963 342.62724573 273.76905006 345.79497189 275.19946289 349.0612793 C276.65006225 352.57430447 277.77135827 356.1973075 278.9375 359.8125 C280.79509636 365.49142105 282.76611901 371.05344102 285.06640625 376.5703125 C286.60717438 380.58017767 287.77617385 384.70071931 288.97265625 388.82421875 C289.88697209 391.65060194 290.99000694 394.30475151 292.18579102 397.02026367 C294.19200128 401.89833234 295.68354163 406.98285336 297.30664062 411.99804688 C299.0547034 417.33567284 300.98869115 422.54268079 303.10961914 427.74291992 C304.24370779 430.61778957 305.1431772 433.53172102 306 436.5 C307.41348959 441.21896526 309.04586605 445.72808532 310.93359375 450.2734375 C312.25085025 453.64136803 313.37852651 457.0634055 314.5 460.5 C316.43785479 466.43383985 318.57679148 472.24657194 321 478 C322.73088097 475.40367855 323.63053084 473.51051887 324.62109375 470.61328125 C324.91693359 469.75669922 325.21277344 468.90011719 325.51757812 468.01757812 C325.97293945 466.67856445 325.97293945 466.67856445 326.4375 465.3125 C327.03949636 463.55829556 327.64235102 461.80438541 328.24609375 460.05078125 C328.54435059 459.18404785 328.84260742 458.31731445 329.14990234 457.42431641 C330.09190882 454.73789358 331.10397048 452.08031603 332.11352539 449.41870117 C334.34944556 443.31810598 336.40091491 437.1488071 338.5 431 C343.89934718 415.18380258 343.89934718 415.18380258 345.6875 410.46875 C347.06014422 406.84104741 348.29211511 403.18559748 349.5 399.5 C350.98247529 395.00913364 352.49811772 390.54351963 354.1953125 386.12890625 C355.75331144 382.00701585 357.20716086 377.84695365 358.68359375 373.6953125 C359.52475165 371.33407995 360.37063983 368.97452366 361.22265625 366.6171875 C363.88270491 359.2443195 366.41552502 351.83949721 368.85717773 344.39160156 C370.45332197 339.54579292 372.18442524 334.76751645 374 330 C378.41690045 318.04732653 382.69042346 306.03725446 386.6875 293.9375 C388.10239217 289.65688971 389.5676536 285.42092219 391.1875 281.21484375 C393.58401211 274.68204392 395.6774351 268.02864241 397.84765625 261.41796875 C399.1455896 257.48161352 400.50941741 253.57874831 401.9375 249.6875 C403.71981569 244.83034961 405.36967647 239.93854646 406.97265625 235.01953125 C407.74053534 232.76260906 408.55884054 230.52273071 409.40234375 228.29296875 C411.24895859 223.41052143 412.87090591 218.45842176 414.5 213.5 C416.33111231 207.92670185 418.19200239 202.38188892 420.28076172 196.89941406 C421.50777532 193.65903192 422.65978069 190.39240615 423.8125 187.125 C424.06749268 186.40320557 424.32248535 185.68141113 424.58520508 184.93774414 C426.76669478 178.72981339 428.85819828 172.49347046 430.9074707 166.24072266 C432.267715 162.11003326 433.71728111 158.02873958 435.26098633 153.96313477 C437.31372762 148.51018045 439.19251833 142.99142084 441.12353516 137.49450684 C441.68351334 135.90075276 442.24371262 134.30707633 442.80419922 132.71350098 C447.62791194 118.99514085 452.3460706 105.24263078 457.02587891 91.47460938 C460.60368382 80.95279568 464.22832018 70.45418848 468 60 C471.41650495 50.44984999 474.74890346 40.8780704 477.90795898 31.23925781 C479.26181179 27.12794282 480.69706496 23.06160227 482.23461914 19.01538086 C483.02557758 16.93264978 483.79946506 14.84415768 484.5703125 12.75390625 C485.08854167 11.35677083 485.60677083 9.95963542 486.125 8.5625 C486.38925781 7.84384766 486.65351562 7.12519531 486.92578125 6.38476562 C488.88721805 1.11278195 488.88721805 1.11278195 490 0 C491.936283 -0.09662973 493.87614262 -0.12187144 495.81483459 -0.12025452 C497.07833237 -0.12162918 498.34183014 -0.12300385 499.64361572 -0.12442017 C501.05676293 -0.12088055 502.4699099 -0.11724574 503.88305664 -0.11352539 C505.36101784 -0.11324353 506.83897919 -0.11340124 508.31694031 -0.1139679 C512.34155828 -0.1142559 516.36614672 -0.1083587 520.3907578 -0.10139394 C524.59216365 -0.09516088 528.7935701 -0.09455664 532.99497986 -0.09336853 C540.95646257 -0.09025507 548.91793162 -0.08204149 556.8794083 -0.07201904 C565.94092589 -0.06085836 575.00244412 -0.05534757 584.06396687 -0.05032361 C602.709319 -0.03985888 621.35465841 -0.02225916 640 0 C639.68892861 1.44390802 639.37518138 2.88723973 639.06030273 4.33032227 C638.79865578 5.53604637 638.79865578 5.53604637 638.53172302 6.76612854 C637.93311905 9.28097982 637.09834799 11.57044174 636.0625 13.9375 C634.67100053 17.25964081 633.49166877 20.53728775 632.5 24 C631.53078982 27.36866025 630.40655205 30.57526957 629.0625 33.8125 C627.07403409 38.62867028 625.56934077 43.52764092 624.125 48.53125 C623.21341808 51.34196091 622.20761329 54.01792299 621.09375 56.75 C618.9894867 61.92882578 617.21990829 67.18320588 615.5 72.5 C613.5015211 78.6779462 611.34412718 84.72318372 608.89257812 90.73632812 C607.75807722 93.61354157 606.85747309 96.52946821 606 99.5 C604.92514254 103.22361334 603.696378 106.79679289 602.21875 110.375 C599.27530933 117.61913454 596.92967075 125.07224381 594.5 132.5 C589.09751416 149.01596112 589.09751416 149.01596112 585.82226562 156.94726562 C584.6999641 159.74902074 583.83663526 162.60165641 583 165.5 C581.55521299 170.3329542 579.86630574 174.95041536 577.93359375 179.60546875 C576.68507223 182.80774361 575.76493332 186.07619565 574.81811523 189.37768555 C574.05798868 191.81412818 573.17241497 194.11589757 572.1875 196.46875 C569.65692808 202.71422001 567.58733842 209.09550431 565.5 215.5 C563.15586791 222.69240527 560.78562175 229.81768138 557.86328125 236.79882812 C556.93303943 239.1707343 556.20580482 241.55232927 555.5 244 C554.56221603 247.25215456 553.49421619 250.34715022 552.1875 253.46875 C549.65692808 259.71422001 547.58733842 266.09550431 545.5 272.5 C543.16058062 279.67794547 540.75441439 286.76244482 537.88867188 293.74804688 C536.56226757 297.10924284 535.52420845 300.53720001 534.5 304 C532.91402772 309.22495163 531.14813081 314.2621496 529.03515625 319.30078125 C527.41297283 323.53070104 526.12807615 327.86383498 524.83789062 332.20507812 C523.72580751 335.89367065 522.4217533 339.35726893 520.85913086 342.88549805 C518.34691591 349.06858805 516.47181034 355.5232327 514.40429688 361.86523438 C512.45137107 367.80358772 510.38443168 373.62882838 508.01147461 379.41088867 C505.94780971 384.69333286 504.25684743 390.1095364 502.5 395.5 C500.17200322 402.64289796 497.77623165 409.6900113 494.92431641 416.64111328 C493.377676 420.58819189 492.16381714 424.63172875 490.9375 428.6875 C490.45022504 430.29667063 489.95939098 431.90476821 489.46484375 433.51171875 C489.254646 434.20740967 489.04444824 434.90310059 488.82788086 435.61987305 C487.93677444 438.18177115 486.8588741 440.6392484 485.77735901 443.12532043 C484.4842245 446.24384459 483.44898975 449.44780502 482.40625 452.65625 C482.17345337 453.36221313 481.94065674 454.06817627 481.70080566 454.79553223 C480.9642514 457.02939698 480.23162194 459.26451537 479.5 461.5 C478.53482595 464.44910749 477.56552492 467.39681187 476.59375 470.34375 C476.37803345 471.00749634 476.16231689 471.67124268 475.94006348 472.35510254 C474.50955962 476.69154852 472.81784348 480.8181838 471 485 C470.48812557 486.41486259 469.99567789 487.83713067 469.53515625 489.26953125 C469.17067383 490.38618164 469.17067383 490.38618164 468.79882812 491.52539062 C468.31172806 493.03837254 467.82474699 494.55139277 467.33789062 496.06445312 C466.07520893 499.93245696 464.73276995 503.72982592 463.19140625 507.49609375 C460.15052288 514.98173379 457.54339733 522.62579936 454.875 530.25 C454.59198029 531.05603668 454.30896057 531.86207336 454.0173645 532.6925354 C449.62850128 545.19551477 445.36133009 557.73484504 441.24755859 570.33105469 C439.32751077 576.17858655 437.29187594 581.92168277 434.95776367 587.61645508 C433.31808608 591.69704959 431.88134268 595.84692443 430.4375 600 C430.14681641 600.825 429.85613281 601.65 429.55664062 602.5 C427.79604705 607.54152074 426.1867619 612.60587488 424.70629883 617.73681641 C423.99772023 620.00730502 423.16132507 622.17888169 422.25 624.375 C417.50202128 635.93450203 413.47225908 647.8748034 410.01953125 659.8828125 C409.15517087 662.52556952 408.187659 665.0459451 407.13671875 667.6171875 C404.82077451 673.32675563 402.90303812 679.14221079 401 685 C398.82225532 691.70337034 396.53958333 698.30010473 393.87060547 704.82470703 C392.45142713 708.37066299 391.35062441 712.0061211 390.22265625 715.65234375 C388.43427592 720.54896337 386.15714756 725.25427537 384 730 C342.75 730 301.5 730 259 730 C256.43632455 723.59081138 253.9456071 717.21421054 251.64453125 710.71484375 C251.34131454 709.86357407 251.03809784 709.01230438 250.72569275 708.13523865 C250.08308941 706.3305107 249.44134518 704.52547665 248.80041504 702.72015381 C247.46543392 698.95992124 246.1262086 695.20120477 244.78726196 691.44238281 C244.12165454 689.57364694 243.45626795 687.7048324 242.79110718 685.8359375 C240.12445806 678.3439912 237.44399523 670.85715763 234.75 663.375 C234.40428955 662.41327881 234.0585791 661.45155762 233.70239258 660.46069336 C232.10742423 656.03299687 230.48695923 651.61685151 228.82752991 647.21295166 C225.75469993 638.99569673 222.84252846 630.72498802 219.98828125 622.4296875 C219.22204521 620.20962161 218.45576777 617.98957001 217.68945312 615.76953125 C216.50889457 612.34608137 215.32884436 608.922458 214.1496582 605.49853516 C207.63635162 586.59301946 201.04320536 567.71575966 194 549 C193.0029908 546.25624009 192.03214633 543.50354084 191.0625 540.75 C190.80235107 540.01273682 190.54220215 539.27547363 190.27416992 538.51586914 C188.41118427 533.21715786 186.62420966 527.89601157 184.86328125 522.5625 C183.89638361 519.6924328 182.85193101 516.86084587 181.7734375 514.03125 C178.70980133 505.98533683 175.92602651 497.85616616 173.24609375 489.67578125 C172.14579886 486.43008378 170.97511347 483.22842218 169.76098633 480.0246582 C168.50328996 476.67846763 167.31327861 473.30884901 166.125 469.9375 C165.8674292 469.20797119 165.6098584 468.47844238 165.34448242 467.72680664 C163.21328352 461.66360804 161.17508141 455.57267139 159.17578125 449.46484375 C158.11506171 446.33906889 156.98774768 443.253909 155.8190918 440.16772461 C151.05438828 427.55794741 146.53670294 414.86613129 142.34667969 402.05395508 C142.08145508 401.24466553 141.81623047 400.43537598 141.54296875 399.6015625 C141.31633545 398.90369629 141.08970215 398.20583008 140.85620117 397.48681641 C139.90151298 394.71394675 138.86336455 391.97569087 137.82832336 389.23202515 C136.33478215 385.20748391 134.93791742 381.14929532 133.53125 377.09375 C133.20966919 376.16961304 132.88808838 375.24547607 132.5567627 374.29333496 C131.1931559 370.3745994 129.83178707 366.45508738 128.47021484 362.53564453 C127.47050481 359.6589084 126.46965132 356.78257182 125.46875 353.90625 C125.16553833 353.03206421 124.86232666 352.15787842 124.54992676 351.25720215 C122.77009164 346.14286111 120.91286543 341.06604095 119 336 C118.49338522 334.58438111 117.99172988 333.16695163 117.5 331.74609375 C117.2525 331.03646484 117.005 330.32683594 116.75 329.59570312 C116.24878863 328.15341519 115.74879412 326.71070382 115.25 325.26757812 C114.07685098 321.91005006 112.84674973 318.64445938 111.4375 315.375 C110.05718366 312.13425728 108.99207359 308.93968385 108 305.5625 C106.7720848 301.39270465 105.39596463 297.33116521 103.84765625 293.26928711 C101.77350581 287.71651398 99.89402642 282.09133221 97.9609375 276.48828125 C97.62320313 275.51246094 97.28546875 274.53664063 96.9375 273.53125 C96.63714844 272.66048828 96.33679688 271.78972656 96.02734375 270.89257812 C95.22317188 268.62836038 94.39555519 266.37866991 93.5480957 264.13061523 C92.07924786 260.23099431 90.67398579 256.31040395 89.29296875 252.37890625 C88.91231514 251.29785362 88.91231514 251.29785362 88.52397156 250.19496155 C84.75805723 239.48631754 81.03360966 228.76308154 77.30541992 218.04125977 C76.32555657 215.22382459 75.34450224 212.40680634 74.36328125 209.58984375 C73.92258049 208.3209153 73.92258049 208.3209153 73.47297668 207.02635193 C71.95859104 202.68138612 70.39623066 198.36059532 68.7688446 194.05677795 C67.28269428 190.0810965 65.87316316 186.07778782 64.453125 182.078125 C64.11883484 181.13805603 63.78454468 180.19798706 63.44012451 179.22943115 C62.73383873 177.24275338 62.02789193 175.25595507 61.32226562 173.26904297 C60.26780864 170.30014155 59.21212018 167.33168033 58.15625 164.36328125 C54.51843604 154.12971691 50.89665972 143.89101229 47.33282471 133.63140869 C45.83932441 129.34425817 44.29513831 125.08171926 42.69018555 120.83505249 C38.25183723 109.03445456 34.1908664 97.08087334 29.98419189 85.19604492 C28.09940215 79.87138165 26.21368317 74.54704745 24.328125 69.22265625 C22.28037089 63.44002213 20.23266259 57.65737187 18.18554688 51.87451172 C16.89554447 48.23054743 15.60485275 44.58682814 14.3135376 40.94332886 C13.64584659 39.05883743 12.97891687 37.17407632 12.31201172 35.28930664 C10.01329292 28.80532472 7.65893238 22.35086211 5.20800781 15.92285156 C4.40791512 13.82416904 3.61018928 11.72459698 2.8125 9.625 C2.40354492 8.55958984 2.40354492 8.55958984 1.98632812 7.47265625 C0 2.22556391 0 2.22556391 0 0 Z " fill="#444444" transform="translate(473,659)"/>
<path d="M0 0 C27.72 0 55.44 0 84 0 C84 135.63 84 271.26 84 411 C170.13 411 256.26 411 345 411 C345 377.01 345 343.02 345 308 C391.2 308 437.4 308 485 308 C485.32242427 344.58172073 485.32242427 344.58172073 485.390625 359.91210938 C485.43809379 370.49730435 485.49389395 381.08198987 485.60351562 391.66674805 C485.68331551 399.37568132 485.73488017 407.0842013 485.75270796 414.79353613 C485.76312782 418.87490759 485.78756928 422.95509687 485.84584045 427.03608894 C485.9002834 430.88024264 485.91686585 434.72273142 485.90486145 438.56723404 C485.90705625 439.97537358 485.92289108 441.38357071 485.9536438 442.79137611 C486.1743991 453.42165418 486.1743991 453.42165418 483.26453686 457.33239365 C481.25996048 459.09855479 479.23396653 460.5426996 477 462 C475.9658683 462.94783106 474.94995845 463.91665655 473.96801758 464.91845703 C473.27238457 465.61420334 473.27238457 465.61420334 472.56269836 466.32400513 C471.86070564 467.03373978 471.86070564 467.03373978 471.14453125 467.7578125 C470.63500412 468.26875458 470.12547699 468.77969666 469.60050964 469.30612183 C468.0020976 470.91003818 466.40722383 472.51741745 464.8125 474.125 C463.73526293 475.20726709 462.65779039 476.28929986 461.58007812 477.37109375 C459.59985746 479.35940254 457.62127988 481.34929366 455.64379883 483.34033203 C453.9828929 485.01120738 452.31810406 486.67824114 450.6477356 488.33965683 C443.8890269 495.13054809 437.46025688 502.05124384 431.59762573 509.6337204 C413.52366913 532.89258058 394.7089943 555.41858314 364.05184841 559.39810681 C348.19426618 561.17432107 332.1496077 561.0602946 316.21936005 560.76498498 C309.79655913 560.649209 303.38036783 560.63713625 296.95681763 560.69078827 C296.02885472 560.69844992 295.10089182 560.70611157 294.14480883 560.7140054 C292.25731625 560.72999811 290.3698255 560.74620893 288.48233664 560.76263496 C270.94392038 560.90389203 253.41874552 560.74349667 235.88250697 560.47261664 C220.96291998 560.24925678 206.06279132 560.28809915 191.14355469 560.51855469 C173.65253326 560.78862548 156.17299584 560.89017428 138.68017864 560.7379415 C136.80118159 560.72202077 134.92218282 560.70630209 133.04318237 560.69078827 C132.11964165 560.68307449 131.19610093 560.67536072 130.24457413 560.66741319 C123.85853647 560.62494767 117.48011545 560.6963869 111.09524536 560.81476593 C77.63752106 561.38289037 48.22338517 561.83589696 22.8240549 537.60371836 C13.03195393 527.96962758 4.20449813 517.44054901 -4.02498531 506.45478034 C-6.18483888 503.77026052 -8.52861525 501.39812032 -11 499 C-31 479 -31 479 -51 459 C-52.28219028 458.05950113 -52.28219028 458.05950113 -53.59028339 457.10000229 C-57.23701413 452.4086317 -56.69568627 448.1022443 -56.64164734 442.31378174 C-56.65015286 441.11685629 -56.65865838 439.91993083 -56.66742164 438.68673491 C-56.68585676 435.36689822 -56.68185091 432.04846316 -56.66828239 428.72869372 C-56.65903202 425.14690481 -56.67851614 421.56525552 -56.69425964 417.98350525 C-56.72036821 410.96457811 -56.71925102 403.94590696 -56.70822146 396.92694971 C-56.69966044 391.21590098 -56.70049591 385.50492627 -56.70801735 379.79387665 C-56.70907224 378.98073082 -56.71012713 378.16758499 -56.71121398 377.32979839 C-56.71338499 375.67770847 -56.71557176 374.02561857 -56.71777413 372.37352869 C-56.73721519 356.87153274 -56.72519986 341.36968003 -56.70298818 325.86769578 C-56.68477637 312.593498 -56.69558436 299.31957894 -56.72729492 286.04541016 C-56.76414944 270.61718829 -56.78104367 255.18914046 -56.76788265 239.76087451 C-56.76654164 238.11122054 -56.76523265 236.46156655 -56.76395607 234.81191254 C-56.7633254 234.00036705 -56.76269474 233.18882157 -56.76204496 232.3526838 C-56.75902941 226.66086316 -56.77022737 220.96917465 -56.78720665 215.2773819 C-56.80764252 208.3220737 -56.80649646 201.36715739 -56.77857425 194.41186902 C-56.76490031 190.86932591 -56.7603988 187.32746427 -56.78252411 183.78494835 C-56.87006571 168.63293207 -56.29458879 155.88674988 -50 142 C-47.99198419 136.88958245 -46.21006944 131.71790419 -44.5 126.5 C-43.0476842 122.06857487 -41.51486698 117.69017675 -39.86132812 113.33007812 C-37.98429341 108.25229487 -36.25879109 103.11964931 -34.5 98 C-30.14538567 85.32419195 -30.14538567 85.32419195 -28.5078125 81.0234375 C-26.32168526 75.27473254 -24.37057339 69.44185127 -22.375 63.625 C-21.93561247 62.34736155 -21.49607564 61.06977444 -21.05639648 59.79223633 C-20.15263142 57.16614043 -19.24924255 54.53991571 -18.34619141 51.91357422 C-16.25624392 45.83662102 -14.16084318 39.76155899 -12.0625 33.6875 C-11.69753418 32.62805176 -11.33256836 31.56860352 -10.95654297 30.47705078 C-9.5304845 26.35059789 -8.10406365 22.22798457 -6.55859375 18.14453125 C-4.29486549 12.12494308 -2.16303549 6.05649939 0 0 Z " fill="#35A751" transform="translate(1086,835)"/>
<path d="M0 0 C40.47962069 -1.24407801 80.95669649 -2.19148333 121.45171005 -2.75752779 C126.26406168 -2.82504207 131.07637597 -2.89493776 135.88867188 -2.96630859 C136.84645691 -2.98047336 137.80424195 -2.99463812 138.79105078 -3.00923212 C154.17347817 -3.24236638 169.5446776 -3.66696314 184.92050661 -4.16625099 C200.7741328 -4.6766439 216.62201188 -4.9722523 232.48351085 -5.08077872 C241.36687901 -5.14740442 250.22696502 -5.3045038 259.10190201 -5.70942307 C290.54163204 -7.10284167 318.90045919 -8.25347372 343.45288675 13.85958789 C355.73497723 25.25129974 366.52151016 38.05806738 376.81870693 51.23704618 C381.56677113 57.25122295 386.02740893 62.29253733 392.37467766 66.61279106 C405.86427014 75.89261409 420.92425118 88.2181583 424.60454786 104.91797483 C428.30439302 125.22236628 426.6837434 146.64527904 425.66499126 167.13616359 C425.16504619 177.37612172 424.97258033 187.62231054 424.75812244 197.87146664 C424.4143815 213.92977364 423.67686458 229.94428429 423 246 C377.13 246 331.26 246 284 246 C284 212.01 284 178.02 284 143 C174.44 143 64.88 143 -48 143 C-47.23756143 137.66293003 -46.26801925 133.55991435 -44.3125 128.6875 C-42.1190999 123.07438088 -40.09433816 117.4297972 -38.21875 111.703125 C-36.06881391 105.19785316 -33.88800802 98.70434872 -31.66796875 92.22265625 C-31.3862381 91.39976608 -31.10450745 90.57687592 -30.8142395 89.72904968 C-30.23534789 88.03887228 -29.65628525 86.34875344 -29.07705688 84.65869141 C-23.62499153 68.74671832 -18.22653596 52.81896755 -12.94458008 36.84960938 C-12.63286865 35.90923828 -12.32115723 34.96886719 -12 34 C-11.80737926 33.4100248 -11.61475851 32.82004959 -11.41630077 32.21219635 C-9.17729084 25.4072759 -6.74960808 18.67355789 -4.3125 11.9375 C-3.89677734 10.78572266 -3.48105469 9.63394531 -3.05273438 8.44726562 C-2.03613076 5.63115676 -1.01853088 2.81541226 0 0 Z " fill="#444444" transform="translate(1147,659)"/>
<path d="M0 0 C46.2 0 92.4 0 140 0 C140.32242427 36.58172073 140.32242427 36.58172073 140.390625 51.91210938 C140.43809379 62.49730435 140.49389395 73.08198987 140.60351562 83.66674805 C140.68331551 91.37568132 140.73488017 99.0842013 140.75270796 106.79353613 C140.76312782 110.87490759 140.78756928 114.95509687 140.84584045 119.03608894 C140.9002834 122.88024264 140.91686585 126.72273142 140.90486145 130.56723404 C140.90705625 131.97537358 140.92289108 133.38357071 140.9536438 134.79137611 C141.1743991 145.42165418 141.1743991 145.42165418 138.26453686 149.33239365 C136.25996048 151.09855479 134.23396653 152.5426996 132 154 C130.9658683 154.94783106 129.94995845 155.91665655 128.96801758 156.91845703 C128.50426224 157.3822879 128.0405069 157.84611877 127.56269836 158.32400513 C127.09470322 158.79716156 126.62670807 159.27031799 126.14453125 159.7578125 C125.63500412 160.26875458 125.12547699 160.77969666 124.60050964 161.30612183 C123.0020976 162.91003818 121.40722383 164.51741745 119.8125 166.125 C118.73526293 167.20726709 117.65779039 168.28929986 116.58007812 169.37109375 C114.59985746 171.35940254 112.62127988 173.34929366 110.64379883 175.34033203 C103.83409711 182.19090831 103.83409711 182.19090831 100.47544861 185.4488678 C95.49381674 190.52544335 91.22261598 195.42327818 87.62796021 201.59762573 C76.48696712 220.66712895 61.18132325 239.94211838 38.86625957 245.82632923 C19.3092423 249.89692139 -1.06703824 249.81328024 -20.97265625 249.78515625 C-21.69971439 249.78432445 -22.42677253 249.78349264 -23.17586273 249.78263563 C-42.12917337 249.74474605 -61.06129648 249.20950774 -80.0009588 248.52931631 C-91.01426073 248.13811508 -102.02549789 247.87310225 -113.04418945 247.69165039 C-113.83371339 247.67851852 -114.62323732 247.66538665 -115.43668622 247.65185684 C-121.61614793 247.54989696 -127.79570035 247.45403162 -133.97528851 247.36008322 C-163.99781064 246.90210633 -193.98120694 245.91582758 -224 245 C-224 198.14 -224 151.28 -224 103 C-150.08 103 -76.16 103 0 103 C0 69.01 0 35.02 0 0 Z " fill="#434343" transform="translate(1431,1143)"/>
<path d="M0 0 C28.71 0 57.42 0 87 0 C87 135.63 87 271.26 87 411 C172.47 411 257.94 411 346 411 C346 377.34 346 343.68 346 309 C346.33 309 346.66 309 347 309 C347 342.99 347 376.98 347 412 C260.87 412 174.74 412 86 412 C86 276.37 86 140.74 86 1 C58.28 1 30.56 1 2 1 C1.34 3.64 0.68 6.28 0 9 C-2.09538957 16.50314169 -4.61860223 23.65897462 -7.703125 30.80859375 C-9.6813758 35.67675912 -11.27297964 40.65343205 -12.88671875 45.65234375 C-13.82937888 48.48693929 -14.85417839 51.24270324 -16 54 C-17.0686776 50.77952562 -16.93810537 49.03163289 -15.75 45.875 C-14.57859272 42.64571505 -13.54223552 39.43548224 -12.625 36.125 C-11.54409057 32.45783082 -10.18796457 29.0847044 -8.5625 25.625 C-4.66897238 17.33366257 -2.2196366 8.87854642 0 0 Z " fill="#C6DECD" transform="translate(1084,834)"/>
<path d="M0 0 C12.21 0 24.42 0 37 0 C37 46.86 37 93.72 37 142 C124.45 142 211.9 142 302 142 C302 142.33 302 142.66 302 143 C189.14 143 76.28 143 -40 143 C-40 142.67 -40 142.34 -40 142 C-15.19084812 138.89885601 9.99777788 141 35 141 C34.505 72.195 34.505 72.195 34 2 C22.78 1.67 11.56 1.34 0 1 C0 0.67 0 0.34 0 0 Z " fill="#52825F" transform="translate(1170,1246)"/>
<path d="M0 0 C0.33 0 0.66 0 1 0 C1.33 134.31 1.66 268.62 2 407 C5.49208181 408.16402727 8.39147772 408.21118508 12.07421875 408.31640625 C13.09996758 408.3475779 13.09996758 408.3475779 14.1464386 408.37937927 C16.3266921 408.44466154 18.50706405 408.50366017 20.6875 408.5625 C22.16732986 408.60570553 23.64714783 408.64932047 25.12695312 408.69335938 C28.75117622 408.80032083 32.37553189 408.90164823 36 409 C36 409.33 36 409.66 36 410 C24.12 410 12.24 410 0 410 C0 274.7 0 139.4 0 0 Z " fill="#EEFFF3" transform="translate(1171,835)"/>
<path d="M0 0 C28.71 0 57.42 0 87 0 C87 0.33 87 0.66 87 1 C58.95 1 30.9 1 2 1 C1.34 3.64 0.68 6.28 0 9 C-2.09538957 16.50314169 -4.61860223 23.65897462 -7.703125 30.80859375 C-9.6813758 35.67675912 -11.27297964 40.65343205 -12.88671875 45.65234375 C-13.82937888 48.48693929 -14.85417839 51.24270324 -16 54 C-17.0686776 50.77952562 -16.93810537 49.03163289 -15.75 45.875 C-14.57859272 42.64571505 -13.54223552 39.43548224 -12.625 36.125 C-11.54409057 32.45783082 -10.18796457 29.0847044 -8.5625 25.625 C-4.66897238 17.33366257 -2.2196366 8.87854642 0 0 Z " fill="#E0FEE9" transform="translate(1084,834)"/>
<path d="M0 0 C0.33 0 0.66 0 1 0 C0.99920441 0.77372452 0.99840881 1.54744904 0.99758911 2.34461975 C0.99537607 9.65675692 1.02190994 16.96797028 1.0802784 24.27985477 C1.10928117 28.03854397 1.12738741 31.79661197 1.12011719 35.55541992 C1.11350206 39.18690378 1.13612931 42.81716253 1.17855453 46.44839287 C1.18964753 47.829733 1.19042017 49.21119796 1.18042374 50.59254646 C0.91698933 59.61903838 0.91698933 59.61903838 5.11279297 67.21655273 C5.67400848 67.70091293 6.235224 68.18527313 6.81344604 68.68431091 C7.20500885 69.11848831 7.59657166 69.55266571 8 70 C7.67 70.99 7.34 71.98 7 73 C3.05856529 69.80270427 0.35599845 66.84244781 -0.6257019 61.76171875 C-0.80836786 57.83035942 -0.7885751 53.93132142 -0.68359375 50 C-0.67051689 48.55414236 -0.66056259 47.10825343 -0.65357971 45.66235352 C-0.62701626 41.8803956 -0.55840338 38.10035846 -0.48065186 34.31915283 C-0.40868402 30.45131407 -0.37699732 26.58316092 -0.34179688 22.71484375 C-0.26701385 15.14235913 -0.14775125 7.57144999 0 0 Z " fill="#3E9B57" transform="translate(1031,1224)"/>
<path d="M0 0 C1 2 1 2 0.1796875 5.0546875 C-0.24625044 6.33114914 -0.68180596 7.60442671 -1.125 8.875 C-1.35509766 9.55046875 -1.58519531 10.2259375 -1.82226562 10.921875 C-3.58186159 16.00408679 -5.61334423 20.93859527 -7.73828125 25.87890625 C-9.69739168 30.72512678 -11.28139973 35.67951513 -12.88671875 40.65234375 C-13.82937888 43.48693929 -14.85417839 46.24270324 -16 49 C-17.0686776 45.77952562 -16.93810537 44.03163289 -15.75 40.875 C-14.57859272 37.64571505 -13.54223552 34.43548224 -12.625 31.125 C-11.25663696 26.48259554 -9.33155223 22.2511285 -7.265625 17.8828125 C-5.49904891 13.85894473 -4.19167757 9.72627639 -2.89453125 5.53125 C-2 3 -2 3 0 0 Z " fill="#D5F7DE" transform="translate(1084,839)"/>
<path d="M0 0 C0.33 0 0.66 0 1 0 C1.52926192 5.16030367 0.04972059 8.32037183 -2.125 12.8359375 C-3.19523457 15.09381283 -3.19523457 15.09381283 -3 18.125 C-3 22.29315735 -4.77253966 24.51959321 -7 28 C-7.66 28 -8.32 28 -9 28 C-6.85693848 19.46260046 -4.02206167 11.26175132 -1 3 C-0.67 2.01 -0.34 1.02 0 0 Z " fill="#59A76B" transform="translate(1040,966)"/>
<path d="M0 0 C1.33518443 4.00555329 0.08663738 6.71208973 -1.1875 10.5625 C-1.41655029 11.27470703 -1.64560059 11.98691406 -1.8815918 12.72070312 C-3.68432335 18.24449755 -5.70281768 23.66129695 -8 29 C-8.33 29 -8.66 29 -9 29 C-9.37219961 23.69822333 -8.11809627 19.88670865 -6.1875 15.0625 C-5.79594727 14.04639648 -5.79594727 14.04639648 -5.39648438 13.00976562 C-3.69575967 8.62987461 -1.8710324 4.30955512 0 0 Z " fill="#DCFAE4" transform="translate(1050,934)"/>
<path d="M0 0 C0.66 0 1.32 0 2 0 C1.41432875 4.40240525 0.30527385 8.10723718 -1.4375 12.1875 C-1.86933594 13.21230469 -2.30117187 14.23710938 -2.74609375 15.29296875 C-4 18 -4 18 -6 21 C-6.32044942 15.65917639 -5.53420127 12.66293035 -3 8 C-2.30092586 5.26427415 -2.30092586 5.26427415 -2 3 C-1.34 3 -0.68 3 0 3 C0 2.01 0 1.02 0 0 Z " fill="#D8F8E2" transform="translate(1057,913)"/>
<path d="M0 0 C0.33 0 0.66 0 1 0 C1.25 7.625 1.25 7.625 -1 11 C-1.185625 12.5159375 -1.185625 12.5159375 -1.375 14.0625 C-1.58125 15.031875 -1.7875 16.00125 -2 17 C-4.0390625 18.18359375 -4.0390625 18.18359375 -6 19 C-4.3186083 12.51292846 -2.46937673 6.2322365 0 0 Z " fill="#5FAC72" transform="translate(1047,946)"/>
<path d="M0 0 C1.125 1.625 1.125 1.625 2 4 C1.25 6.9375 1.25 6.9375 0 10 C-0.350625 10.9075 -0.70125 11.815 -1.0625 12.75 C-1.66132097 14.18717034 -2.30371771 15.60743542 -3 17 C-3.66 17 -4.32 17 -5 17 C-1.92482916 5.47835991 -1.92482916 5.47835991 0 0 Z " fill="#5BA96F" transform="translate(1053,928)"/>
<path d="M0 0 C0.33 0 0.66 0 1 0 C1.32044942 5.34082361 0.53420127 8.33706965 -2 13 C-2.69907414 15.73572585 -2.69907414 15.73572585 -3 18 C-3.99 18 -4.98 18 -6 18 C-4.77962649 13.4940055 -3.36468335 9.15202939 -1.68359375 4.796875 C-1.08104615 3.2130356 -0.53587413 1.6076224 0 0 Z " fill="#59A96D" transform="translate(1060,909)"/>
<path d="M0 0 C0.33 0 0.66 0 1 0 C0.74213573 6.52396607 0.17832479 10.87818251 -4 16 C-5 14 -5 14 -4.00390625 10.7421875 C-3.53110016 9.4502948 -3.05028031 8.16131362 -2.5625 6.875 C-2.31951172 6.21628906 -2.07652344 5.55757812 -1.82617188 4.87890625 C-1.22421679 3.25008662 -0.61297588 1.62470425 0 0 Z " fill="#65AE77" transform="translate(1077,860)"/>
<path d="M0 0 C4.18423892 3.50897269 8.19588166 7.08060535 12 11 C8.42185133 10.40364189 6.45577139 9.000066 3.75 6.625 C3.04359375 6.01914063 2.3371875 5.41328125 1.609375 4.7890625 C0 3 0 3 0 0 Z " fill="#D8FBE1" transform="translate(1066,1325)"/>
<path d="M0 0 C4.79280002 0.80904103 6.13520113 3.25984591 9 7 C6 7 6 7 4.39453125 5.46875 C3.87246094 4.8190625 3.35039063 4.169375 2.8125 3.5 C2.28269531 2.8503125 1.75289062 2.200625 1.20703125 1.53125 C0.80871094 1.0259375 0.41039062 0.520625 0 0 Z " fill="#52A868" transform="translate(1094,1352)"/>
<path d="M0 0 C2.475 0.495 2.475 0.495 5 1 C5 1.66 5 2.32 5 3 C5.66 3 6.32 3 7 3 C7.33 4.65 7.66 6.3 8 8 C6.85073734 7.04578192 5.70569459 6.08647955 4.5625 5.125 C3.92441406 4.59132813 3.28632812 4.05765625 2.62890625 3.5078125 C1 2 1 2 0 0 Z " fill="#58AB6E" transform="translate(1086,1344)"/>
<path d="M0 0 C3.36591866 1.44253657 5.51047079 3.33264727 8 6 C7.67 6.99 7.34 7.98 7 9 C5.83037314 7.69013727 4.66437056 6.3770374 3.5 5.0625 C2.8503125 4.33160156 2.200625 3.60070313 1.53125 2.84765625 C0 1 0 1 0 0 Z " fill="#4FA365" transform="translate(1031,1288)"/>
<path d="M0 0 C0.66 0 1.32 0 2 0 C1.71758359 1.46015291 1.42373386 2.91809793 1.125 4.375 C0.96257812 5.18710937 0.80015625 5.99921875 0.6328125 6.8359375 C0 9 0 9 -2 11 C-1.85892253 9.54119891 -1.71197585 8.08296449 -1.5625 6.625 C-1.48128906 5.81289063 -1.40007812 5.00078125 -1.31640625 4.1640625 C-1 2 -1 2 0 0 Z " fill="#E2FDE8" transform="translate(1032,983)"/>
<path d="M0 0 C0.33 0 0.66 0 1 0 C1.25 3.25 1.25 3.25 1 7 C-0.32 8.32 -1.64 9.64 -3 11 C-2.01 7.37 -1.02 3.74 0 0 Z " fill="#61AC75" transform="translate(1064,897)"/>
<path d="M0 0 C1.32 0.33 2.64 0.66 4 1 C4 1.66 4 2.32 4 3 C4.99 3.33 5.98 3.66 7 4 C6.67 4.99 6.34 5.98 6 7 C4.02 4.69 2.04 2.38 0 0 Z " fill="#4AA062" transform="translate(1109,1367)"/>
</svg>
